<?xml version="1.0" encoding="UTF-8"?>
<svg version="1.1" xmlns="http://www.w3.org/2000/svg" width="1200" height="986">
<path d="M0 0 C22.37432413 -1.72570045 47.18330153 5.78999041 65.27246094 19.41748047 C69.05648872 21.63041824 72.22330703 21.76639876 76.48339844 21.78466797 C94.19097667 22.40425265 108.89080992 28.39515348 121.35839844 41.22216797 C121.98101563 41.82416016 122.60363281 42.42615234 123.24511719 43.04638672 C129.89643039 49.93684826 134.27546815 59.1095209 137.86230469 67.91357422 C139.29976191 71.09249397 140.71126113 73.0494299 143.04589844 75.59716797 C151.12058599 85.47279132 155.13621453 97.13972747 158.73339844 109.22216797 C163.70254252 125.7916706 171.10281316 141.38210889 178.18173218 157.13059998 C181.18755794 163.81879108 184.11438935 170.53647793 186.98339844 177.28466797 C187.34296631 178.12803711 187.70253418 178.97140625 188.07299805 179.84033203 C188.83664268 181.63349295 189.59790429 183.42766863 190.35839844 185.22216797 C190.9369458 185.2012207 191.51549316 185.18027344 192.11157227 185.15869141 C206.3778005 184.71016607 217.92860888 184.63624229 229.35839844 194.24951172 C232.71892569 197.56409426 235.1421249 201.06581303 237.35839844 205.22216797 C237.7721875 205.98658203 238.18597656 206.75099609 238.61230469 207.53857422 C243.79862243 219.08581128 242.96183688 234.70172068 238.67871094 246.39794922 C233.87408994 256.67528941 226.31357779 263.53767846 217.35839844 270.22216797 C218.276307 277.11768604 219.25721509 284.00212533 220.28198242 290.88256836 C220.62298746 293.22294832 220.94963427 295.56546796 221.26147461 297.90991211 C221.71296675 301.28501259 222.21598941 304.64898364 222.72949219 308.01513672 C222.85803085 309.06114548 222.98656952 310.10715424 223.1190033 311.18486023 C224.00777442 316.73255719 224.00777442 316.73255719 227.35354614 321.06167603 C230.69147117 323.07779605 232.97564651 324.38252719 236.93225098 323.92367554 C240.39074599 322.92367019 243.56135903 321.39806397 246.79199219 319.83544922 C247.50637955 319.49595749 248.22076691 319.15646576 248.95680237 318.8066864 C251.23905021 317.72126701 253.51767091 316.62849734 255.79589844 315.53466797 C272.98780969 307.3082407 272.98780969 307.3082407 281.14746094 303.71826172 C282.2310791 303.23929443 283.31469727 302.76032715 284.43115234 302.2668457 C288.69900828 300.74373014 292.14931495 300.47673454 296.35839844 302.22216797 C300.49008319 304.83625313 303.50718913 307.65087779 305.35839844 312.22216797 C305.54507446 314.97187805 305.54507446 314.97187805 305.45849609 318.16479492 C305.4195372 319.96234978 305.4195372 319.96234978 305.37979126 321.79621887 C305.34437225 323.08791489 305.30895325 324.3796109 305.27246094 325.71044922 C305.2483937 327.05556293 305.22640211 328.40071523 305.20639038 329.74589539 C305.12111959 335.44868529 305.02593968 341.15059284 304.86474609 346.85180664 C304.76729225 350.34477871 304.70960372 353.83652308 304.67725754 357.33067894 C304.64801483 359.29818212 304.57607668 361.2649023 304.50332642 363.23127747 C304.42070279 369.77557553 304.42070279 369.77557553 306.90692139 375.67245483 C310.30850742 379.04715148 312.36936671 380.19747977 317.21191406 380.31835938 C318.60376643 379.9918133 319.98616552 379.62324426 321.35839844 379.22216797 C322.14239014 379.04047058 322.92638184 378.85877319 323.73413086 378.67156982 C326.40273599 378.05232449 329.05077484 377.37224502 331.70214844 376.68310547 C333.69029045 376.17995082 335.6785762 375.6773638 337.66699219 375.17529297 C340.76906649 374.38687161 343.86984888 373.59420153 346.96826172 372.79150391 C349.98064307 372.01346848 352.99710078 371.2533183 356.01464844 370.49560547 C356.93258179 370.25296967 357.85051514 370.01033386 358.79626465 369.76034546 C365.05067856 368.20783392 370.42867871 367.60159328 376.56542969 370.13232422 C381.0752416 373.36929384 383.35750321 376.71247808 384.35839844 382.22216797 C384.73940364 388.58458491 383.40848784 394.27501442 381.95214844 400.44873047 C381.70799194 401.51457367 381.46383545 402.58041687 381.21228027 403.67855835 C380.43481642 407.06979259 379.64751702 410.45862825 378.85839844 413.84716797 C378.07004398 417.2430084 377.28397816 420.6393077 376.5045166 424.03720093 C376.02023065 426.14751232 375.5307653 428.25664343 375.03552246 430.3644104 C374.81529419 431.32245575 374.59506592 432.2805011 374.36816406 433.26757812 C374.07504333 434.52497299 374.07504333 434.52497299 373.77600098 435.80776978 C372.9860787 440.3747605 372.97014616 443.52523786 375.5168457 447.49902344 C377.65674012 450.15256578 378.82799654 451.09897689 382.17575073 451.87652588 C385.75337132 452.05058333 389.24539742 451.9632416 392.82324219 451.79248047 C394.81985226 451.75344033 396.81646363 451.71443339 398.81311131 451.67736626 C402.3084942 451.60090083 405.80190095 451.47010324 409.29589844 451.34716797 C413.46301421 451.20809998 417.62956782 451.08248937 421.79823303 451.0007019 C424.39004839 450.94626806 426.98145963 450.86305516 429.5712738 450.74758911 C439.3496661 450.53010534 439.3496661 450.53010534 443.5793457 454.00683594 C446.78501339 457.26066645 448.73297835 460.66963957 449.35839844 465.22216797 C448.73199707 472.75430559 445.8075794 479.48365073 442.75292969 486.30419922 C441.84328426 488.39072663 440.93378322 490.47731701 440.02441406 492.56396484 C438.59303475 495.81570936 437.15726004 499.06544889 435.71801758 502.3137207 C434.32265294 505.4724504 432.94338401 508.63784448 431.56542969 511.80419922 C431.12906693 512.77508987 430.69270416 513.74598053 430.24311829 514.74629211 C429.8490831 515.65461288 429.45504791 516.56293365 429.04907227 517.4987793 C428.69758621 518.29246414 428.34610016 519.08614899 427.98396301 519.90388489 C426.91810595 523.85385022 428.31014935 527.05427538 429.41699219 530.90576172 C431.07494911 534.52623011 431.07494911 534.52623011 434.83105469 535.56982422 C436.35581529 535.83931202 437.88679455 536.07480169 439.42089844 536.28466797 C440.26418701 536.42839844 441.10747559 536.57212891 441.97631836 536.72021484 C443.93675832 537.05204726 445.8996796 537.36939912 447.86425781 537.67578125 C454.21272027 538.66850477 460.54647267 539.74594102 466.87911987 540.83444214 C469.13918987 541.21680348 471.40175178 541.5799362 473.6652832 541.94116211 C475.0904355 542.18004761 476.51548876 542.41952489 477.94042969 542.65966797 C479.20089111 542.86462891 480.46135254 543.06958984 481.76000977 543.28076172 C486.42189769 544.5003994 490.67872993 546.29412743 493.91699219 550.01123047 C496.4901257 555.38622046 497.63047824 560.31229721 496.35839844 566.22216797 C494.47528755 570.21758415 491.94619416 573.65435188 489.35839844 577.22216797 C488.53538048 578.41472467 487.71656943 579.61019256 486.90136719 580.80810547 C482.91007661 586.66838675 478.87115476 592.49419662 474.79589844 598.29638672 C473.60832357 600.00076164 472.42082229 601.70518784 471.23339844 603.40966797 C470.66476074 604.21146484 470.09612305 605.01326172 469.51025391 605.83935547 C468.98318848 606.59861328 468.45612305 607.35787109 467.91308594 608.14013672 C467.44370605 608.80811279 466.97432617 609.47608887 466.49072266 610.16430664 C465.17301625 612.55907751 464.65989917 614.50866141 464.35839844 617.22216797 C466.10000092 623.00403211 468.37601289 625.50028882 473.35839844 628.78466797 C474.62671167 629.64330109 475.89356043 630.50410015 477.15917969 631.36669922 C477.83803223 631.82383301 478.51688477 632.2809668 479.21630859 632.75195312 C483.06478152 635.39333721 486.79836045 638.19035944 490.54589844 640.97216797 C492.17461992 642.17554308 493.80352823 643.37866538 495.43261719 644.58154297 C496.24778809 645.18417969 497.06295898 645.78681641 497.90283203 646.40771484 C501.88489041 649.35011471 505.87178612 652.28594276 509.85839844 655.22216797 C514.62222571 658.73104012 519.38511645 662.24114602 524.14355469 665.75732422 C525.73588661 666.93326256 527.32833402 668.10904452 528.92089844 669.28466797 C529.69780029 669.85822021 530.47470215 670.43177246 531.27514648 671.02270508 C537.61179336 675.69170931 543.98947913 680.30252428 550.39770508 684.87280273 C563.20955566 694.05935871 563.20955566 694.05935871 565.35839844 701.22216797 C568.01650633 721.04722264 551.04131326 740.61451761 540.67089844 755.97216797 C539.46779726 757.7660183 538.26532058 759.56028763 537.06347656 761.35498047 C526.60981136 776.94431646 516.02855639 792.44850832 505.29589844 807.84716797 C504.62526367 808.81025879 503.95462891 809.77334961 503.26367188 810.765625 C497.80388846 818.59894456 492.30783036 826.40606064 486.78955078 834.19824219 C485.32617074 836.26774416 483.86710156 838.34022402 482.40917969 840.41357422 C477.28827622 847.69285423 472.1343248 854.94630379 466.92089844 862.15966797 C466.11410645 863.27692261 466.11410645 863.27692261 465.29101562 864.41674805 C462.5410005 868.22038837 459.77904686 872.0146185 456.99902344 875.79638672 C449.99210414 885.35677039 443.50447446 895.09040133 437.35839844 905.22216797 C435.68545328 907.97628209 434.00976141 910.72858615 432.32714844 913.47680664 C431.21182895 915.2988648 430.10210681 917.12436554 428.99902344 918.95385742 C425.82770965 924.13647788 422.55012994 928.80887351 418.35839844 933.22216797 C417.69839844 933.22216797 417.03839844 933.22216797 416.35839844 933.22216797 C413.74342598 902.42360346 430.57185289 869.12193423 443.7265625 842.24169922 C474.96640482 782.46036134 474.96640482 782.46036134 482.35839844 719.22216797 C480.7289178 717.99771513 480.7289178 717.99771513 478.79589844 717.03466797 C477.66152344 716.43654297 476.52714844 715.83841797 475.35839844 715.22216797 C474.78879395 716.29313721 474.21918945 717.36410645 473.63232422 718.4675293 C467.17389057 730.44123682 459.91653247 741.6924643 452.23339844 752.90966797 C451.03104355 754.67688428 449.82922587 756.44446619 448.62792969 758.21240234 C440.48286324 770.1834576 432.25661879 782.09709965 423.94433594 793.95263672 C421.12955068 797.98069148 418.35447542 802.03587949 415.5793457 806.09130859 C412.90294812 809.99548923 410.19988424 813.87973757 407.47949219 817.75341797 C400.62794564 827.52061911 393.92693323 837.31079131 387.67480469 847.47216797 C385.14111231 851.58900837 382.55538904 855.6691055 379.92089844 859.72216797 C379.50727051 860.37636719 379.09364258 861.03056641 378.66748047 861.70458984 C377.64353076 863.26529763 376.50921218 864.75250491 375.35839844 866.22216797 C374.36839844 866.22216797 373.37839844 866.22216797 372.35839844 866.22216797 C375.06506986 848.37505328 381.66508641 831.69304667 388.85839844 815.22216797 C389.49745117 813.75674561 389.49745117 813.75674561 390.14941406 812.26171875 C392.64231359 806.6844634 395.36270475 801.28597762 398.27636719 795.92138672 C402.31964203 788.45984264 405.81125564 780.82392493 409.17089844 773.03466797 C409.46599304 772.35561401 409.76108765 771.67656006 410.06512451 770.97692871 C417.86920188 753.00994837 425.33073565 734.86985757 431.35839844 716.22216797 C431.02839844 715.89216797 430.69839844 715.56216797 430.35839844 715.22216797 C428.90046875 716.31271484 428.90046875 716.31271484 427.41308594 717.42529297 C418.24247122 724.15199079 408.88108432 729.92170941 398.76025391 735.12353516 C392.33237752 738.47528832 387.58805461 741.88030872 383.73339844 748.15966797 C369.13959889 770.54914272 349.54088023 789.16078861 328.35839844 805.22216797 C327.77219727 805.67060059 327.18599609 806.1190332 326.58203125 806.58105469 C306.64887312 821.77995093 284.70897695 835.58389796 261.42089844 844.97216797 C254.56792889 847.76884124 250.06593566 851.54339149 245.35839844 857.22216797 C244.27703154 858.47386951 243.19373134 859.72390373 242.10839844 860.97216797 C241.55539062 861.61541016 241.00238281 862.25865234 240.43261719 862.92138672 C233.27053697 870.86576571 225.5349091 878.33270065 217.35839844 885.22216797 C216.03582031 886.39585937 216.03582031 886.39585937 214.68652344 887.59326172 C186.81532654 912.13594286 149.572805 934.39012801 111.35839844 935.22216797 C110.37484375 935.26083984 109.39128906 935.29951172 108.37792969 935.33935547 C78.29007795 935.99901604 51.25301657 925.45213601 28.35839844 906.22216797 C27.57722656 905.57634766 26.79605469 904.93052734 25.99121094 904.26513672 C20.48933362 899.6149735 20.48933362 899.6149735 19.35839844 896.22216797 C20.20096191 896.20029419 20.20096191 896.20029419 21.06054688 896.17797852 C48.21268865 895.39866248 73.79301756 891.3166412 98.35839844 879.22216797 C99.05416992 878.88314453 99.74994141 878.54412109 100.46679688 878.19482422 C110.80937719 873.10050861 120.22632814 867.24970464 129.35839844 860.22216797 C130.2775 859.52736328 131.19660156 858.83255859 132.14355469 858.11669922 C143.39651025 849.28337769 154.03738345 838.88208866 162.35839844 827.22216797 C119.84150345 815.39435765 68.68008411 805.70045836 25.69433594 820.45263672 C23.35839844 821.22216797 23.35839844 821.22216797 21.35839844 821.22216797 C23.06868922 815.74923745 25.55612133 813.29187078 29.35839844 808.22216797 C15.16839844 808.22216797 0.97839844 808.22216797 -13.64160156 808.22216797 C-12.32160156 810.20216797 -11.00160156 812.18216797 -9.64160156 814.22216797 C-8.30826823 816.22216797 -6.9749349 818.22216797 -5.64160156 820.22216797 C-8.36239031 820.97260659 -10.88469051 821.38169749 -13.70166016 821.51586914 C-14.50465042 821.55673141 -15.30764069 821.59759369 -16.13496399 821.63969421 C-17.01113876 821.68109024 -17.88731354 821.72248627 -18.79003906 821.76513672 C-20.73482685 821.86649152 -22.67956759 821.9687518 -24.62426758 822.07177734 C-25.66253693 822.12615967 -26.70080627 822.18054199 -27.77053833 822.23657227 C-49.30235209 823.38475213 -70.74865003 825.11794143 -92.20410156 827.22216797 C-93.49201599 827.34764008 -94.77993042 827.47311218 -96.10687256 827.60238647 C-112.97979092 829.25476938 -129.81813053 831.12557177 -146.64160156 833.22216797 C-146.64160156 833.88216797 -146.64160156 834.54216797 -146.64160156 835.22216797 C-138.92685311 842.66425379 -129.66960093 848.51875816 -120.64160156 854.22216797 C-120.00544922 854.6254834 -119.36929687 855.02879883 -118.71386719 855.44433594 C-89.60400067 873.70054899 -57.15577825 886.54502775 -22.95019531 890.72998047 C-22.18835938 890.89240234 -21.42652344 891.05482422 -20.64160156 891.22216797 C-20.31160156 891.88216797 -19.98160156 892.54216797 -19.64160156 893.22216797 C-29.83407034 914.47994125 -48.38960058 933.64205063 -70.57910156 941.97216797 C-93.21829139 949.56740857 -115.61144705 946.32595521 -136.82177734 936.17919922 C-153.73780419 927.73414969 -167.97083732 916.14305907 -181.64160156 903.22216797 C-183.57685621 901.49048871 -185.51431156 899.76126531 -187.45410156 898.03466797 C-191.18460615 894.64523809 -194.60802607 891.18403572 -197.84863281 887.32763672 C-199.95953886 884.84881676 -202.17446198 882.48137616 -204.39160156 880.09716797 C-207.2510092 876.99911478 -209.91928236 873.91119478 -212.41113281 870.51123047 C-217.51975107 863.54289985 -220.93712708 859.02264707 -229.64160156 857.22216797 C-253.61099651 849.29263753 -273.76614354 834.85275671 -291.64160156 817.22216797 C-292.44952148 816.43326172 -293.25744141 815.64435547 -294.08984375 814.83154297 C-296.86608082 812.11655381 -299.63084844 809.39039724 -302.39160156 806.65966797 C-303.2673584 805.79720459 -304.14311523 804.93474121 -305.04541016 804.04614258 C-311.0130822 798.08468098 -316.39041674 791.81780152 -321.64160156 785.22216797 C-322.76220853 783.85894416 -323.88560688 782.49800667 -325.01269531 781.14013672 C-330.34187339 774.67195586 -335.55812803 768.15163564 -340.45410156 761.34716797 C-340.88070068 760.75830811 -341.3072998 760.16944824 -341.74682617 759.56274414 C-344.64160156 755.47218189 -344.64160156 755.47218189 -344.64160156 753.22216797 C-345.87394531 752.84576172 -347.10628906 752.46935547 -348.37597656 752.08154297 C-354.45669508 750.05146728 -360.13736478 747.27809319 -365.89160156 744.47216797 C-366.99173584 743.94010742 -368.09187012 743.40804687 -369.2253418 742.85986328 C-376.80692784 739.17246317 -384.29958342 735.36756191 -391.64160156 731.22216797 C-386.60770513 743.20113506 -380.93915856 754.84925325 -375.14160156 766.47216797 C-374.78333282 767.19370056 -374.42506409 767.91523315 -374.05593872 768.65863037 C-368.14580561 780.5463004 -361.80505764 792.09021616 -354.89086914 803.42871094 C-343.7564531 821.80956453 -332.02789306 843.55074514 -329.64160156 865.22216797 C-338.08533372 861.45524436 -342.85493063 852.13099914 -347.94946289 844.78979492 C-352.01983318 838.97742 -356.40059884 833.55882671 -361.05175781 828.20654297 C-365.02156177 823.63198758 -368.81967914 818.92023506 -372.64160156 814.22216797 C-374.05785068 812.49265929 -375.47452629 810.7634998 -376.89160156 809.03466797 C-381.2222782 803.74245998 -385.53342113 798.43450954 -389.84375 793.12573242 C-392.93573036 789.31851726 -396.03331994 785.51609995 -399.14160156 781.72216797 C-400.64175145 779.88895728 -402.14173612 778.05561139 -403.64160156 776.22216797 C-404.37612549 775.32546387 -404.37612549 775.32546387 -405.12548828 774.41064453 C-411.52587832 766.59162137 -417.86104712 758.7418987 -423.97363281 750.69482422 C-425.97591152 748.06803809 -428.02498411 745.48283737 -430.09082031 742.90576172 C-437.17962897 734.01944386 -443.28811017 725.25276877 -448.64160156 715.22216797 C-449.63160156 713.73716797 -449.63160156 713.73716797 -450.64160156 712.22216797 C-457.36184098 717.3161331 -457.36184098 717.3161331 -461.64160156 724.22216797 C-460.76822817 750.57749437 -437.78964717 780.72620962 -424.64160156 802.22216797 C-424.04250977 803.20685059 -423.44341797 804.1915332 -422.82617188 805.20605469 C-414.29745805 819.21067209 -405.64504227 833.04630985 -395.70410156 846.09716797 C-377.90176356 869.50584585 -355.23047961 902.03348513 -353.64160156 932.22216797 C-357.16002942 931.64101423 -358.80415374 930.42609294 -361.28613281 927.90576172 C-361.96353516 927.22320313 -362.6409375 926.54064453 -363.33886719 925.83740234 C-364.3859082 924.75942383 -364.3859082 924.75942383 -365.45410156 923.65966797 C-366.14052734 922.96808594 -366.82695312 922.27650391 -367.53417969 921.56396484 C-374.81235992 914.17561348 -381.42541092 906.32577736 -387.91894531 898.24951172 C-389.88146731 895.95295636 -391.98660149 894.00721283 -394.28833008 892.05249023 C-398.73415549 888.19660495 -402.88073056 884.09313615 -407.01660156 879.90966797 C-408.16974854 878.75084106 -408.16974854 878.75084106 -409.34619141 877.56860352 C-412.60019986 874.29840761 -415.84816422 871.02223307 -419.09667969 867.74658203 C-421.48455508 865.34051512 -423.87550949 862.93753758 -426.26660156 860.53466797 C-426.9876709 859.80530029 -427.70874023 859.07593262 -428.45166016 858.32446289 C-429.14598145 857.62683838 -429.84030273 856.92921387 -430.55566406 856.21044922 C-431.15330566 855.6075708 -431.75094727 855.00469238 -432.36669922 854.38354492 C-434.33544038 852.51305067 -436.34498105 850.73632394 -438.39964294 848.96214294 C-442.64023109 845.27165433 -446.6308416 841.37397014 -450.59887695 837.39428711 C-451.72493095 836.27086159 -451.72493095 836.27086159 -452.87373352 835.1247406 C-455.33141344 832.67142819 -457.78545683 830.21451587 -460.23925781 827.75732422 C-461.95968787 826.03756866 -463.68026628 824.3179615 -465.40098572 822.59849548 C-468.99754827 819.003403 -472.59230684 815.40651901 -476.18579102 811.80834961 C-480.77754451 807.21089928 -485.37377316 802.61795333 -489.97136784 798.02634525 C-493.52233727 794.47900009 -497.07090823 790.92926331 -500.61877251 787.37881279 C-502.31201347 785.68490772 -504.00598935 783.99173693 -505.70073128 782.29933357 C-508.07416481 779.92845727 -510.44433932 777.55436838 -512.8137207 775.17944336 C-513.50534302 774.48984528 -514.19696533 773.80024719 -514.9095459 773.0897522 C-518.82791492 769.15449794 -522.56222994 765.11330626 -526.17879391 760.89841366 C-527.8585596 758.97355361 -529.6495533 757.21474634 -531.51660156 755.47216797 C-540.88645272 746.19328624 -550.63476234 734.08806658 -550.89160156 720.34716797 C-550.91738281 719.52474609 -550.94316406 718.70232422 -550.96972656 717.85498047 C-550.23835702 711.98661056 -547.06060553 708.29606925 -542.89160156 704.34716797 C-539.84182405 701.3943487 -536.89140379 698.45645916 -534.14160156 695.22216797 C-530.6570805 691.14593578 -526.86078175 687.42665924 -523.04785156 683.65966797 C-520.98710811 681.57216162 -519.0464453 679.45047574 -517.14160156 677.22216797 C-513.6570805 673.14593578 -509.86078175 669.42665924 -506.04785156 665.65966797 C-503.98710811 663.57216162 -502.0464453 661.45047574 -500.14160156 659.22216797 C-496.6570805 655.14593578 -492.86078175 651.42665924 -489.04785156 647.65966797 C-486.98710811 645.57216162 -485.0464453 643.45047574 -483.14160156 641.22216797 C-479.66545017 637.15572672 -475.87921271 633.44470927 -472.07519531 629.68701172 C-469.28980222 626.86585113 -466.68041944 623.93370056 -464.11425781 620.91357422 C-462.68701753 619.27433008 -461.19647818 617.73991321 -459.64160156 616.22216797 C-460.98530906 612.51851746 -462.65040924 609.51868156 -464.91503906 606.30029297 C-465.56972168 605.36483643 -466.2244043 604.42937988 -466.89892578 603.46557617 C-467.94717529 601.98383911 -467.94717529 601.98383911 -469.01660156 600.47216797 C-469.72961426 599.45533936 -470.44262695 598.43851074 -471.17724609 597.39086914 C-474.53563156 592.60642803 -477.91347542 587.83590382 -481.29785156 583.06982422 C-481.84521973 582.29799805 -482.39258789 581.52617188 -482.95654297 580.73095703 C-483.9713342 579.30230884 -484.98908426 577.87575617 -486.01025391 576.45166016 C-491.49562814 568.74912612 -492.59081278 563.74987557 -491.64160156 554.22216797 C-489.46934826 549.45992034 -486.34822727 546.46567669 -481.64160156 544.22216797 C-477.7349715 543.17505192 -473.78171137 542.57578978 -469.78613281 541.96826172 C-468.64754318 541.78127213 -467.50895355 541.59428253 -466.33586121 541.40162659 C-462.71069316 540.80710058 -459.08291778 540.23147414 -455.45410156 539.65966797 C-451.81475152 539.08341553 -448.17640867 538.50281014 -444.54020691 537.90699768 C-442.28062382 537.53687395 -440.01915501 537.17804975 -437.7558136 536.83164978 C-436.73432724 536.66460037 -435.71284088 536.49755096 -434.66040039 536.32543945 C-433.76138504 536.18428207 -432.86236969 536.04312469 -431.93611145 535.89768982 C-428.1667951 534.78797329 -426.39055743 532.15424185 -424.39160156 528.90966797 C-423.85792969 528.08015625 -423.85792969 528.08015625 -423.31347656 527.23388672 C-421.33193517 521.30078313 -425.41399368 514.75520456 -427.82519531 509.44091797 C-428.24076187 508.50920776 -428.65632843 507.57749756 -429.08448792 506.61755371 C-430.40948655 503.6494474 -431.74374046 500.68562482 -433.07910156 497.72216797 C-434.40944384 494.75809314 -435.73776042 491.79314047 -437.06300354 488.82678223 C-437.8866432 486.98440389 -438.7134351 485.1434306 -439.54380798 483.30407715 C-443.1577877 475.24175482 -445.64432539 469.08314031 -443.64160156 460.22216797 C-441.33802829 455.85332211 -438.75943671 452.29379684 -433.95532227 450.64257812 C-430.79979045 450.0692083 -427.82751496 450.20415399 -424.62207031 450.30810547 C-423.93441086 450.32902756 -423.2467514 450.34994965 -422.53825378 450.37150574 C-420.30165105 450.44114306 -418.06541973 450.51896272 -415.82910156 450.59716797 C-414.29411925 450.64691182 -412.75912563 450.69630791 -411.22412109 450.74536133 C-399.02597862 451.14290646 -386.83226534 451.63870443 -374.64160156 452.22216797 C-374.35800781 451.60341797 -374.07441406 450.98466797 -373.78222656 450.34716797 C-372.64160156 448.22216797 -372.64160156 448.22216797 -370.39160156 446.22216797 C-365.39378026 437.6544743 -373.56274641 418.652765 -375.90625 409.20629883 C-382.02556205 384.44854288 -382.02556205 384.44854288 -378.01660156 375.65966797 C-371.980643 369.46486839 -371.980643 369.46486839 -367.28500366 368.97764587 C-360.41606646 368.95290531 -354.3117241 369.93255551 -347.68066406 371.66357422 C-346.68706879 371.91010239 -345.69347351 372.15663055 -344.66976929 372.41062927 C-341.53220105 373.18989025 -338.39914617 373.98547058 -335.26660156 374.78466797 C-332.1124531 375.58656604 -328.95757724 376.3844766 -325.79916382 377.16941833 C-323.84335494 377.65561403 -321.88992628 378.15151511 -319.93936157 378.65834045 C-319.05428925 378.87864426 -318.16921692 379.09894806 -317.25732422 379.32592773 C-316.48442047 379.52356216 -315.71151672 379.72119659 -314.91519165 379.92481995 C-310.85028067 380.45644315 -307.22243325 379.46937667 -303.82519531 377.21826172 C-301.12149262 374.74909003 -300.66628139 373.40795438 -300.17724609 369.7265625 C-300.08325971 365.2331832 -300.40244478 360.76537211 -300.70410156 356.28466797 C-300.78544534 354.65970979 -300.86257289 353.03453524 -300.93554688 351.40917969 C-301.08259775 348.17914365 -301.24378667 344.95038956 -301.41748047 341.72167969 C-301.72735301 335.7645414 -301.8552403 329.81190998 -301.89160156 323.84716797 C-301.91230713 322.9410376 -301.9330127 322.03490723 -301.9543457 321.10131836 C-301.99062177 315.139952 -301.0078685 311.07965994 -297.09863281 306.35888672 C-293.59462621 303.27103292 -290.62238328 301.23163739 -285.75488281 300.99731445 C-275.54237133 302.08392756 -264.64808336 309.39908062 -255.45410156 313.78466797 C-253.02596016 314.94061505 -250.59739728 316.09565926 -248.1681366 317.24925232 C-246.66702467 317.96231776 -245.16658186 318.67679423 -243.66694641 319.39295959 C-239.3646564 321.43931932 -235.03237548 323.37291108 -230.64160156 325.22216797 C-230.93611206 324.09125732 -230.93611206 324.09125732 -231.23657227 322.9375 C-244.40606598 272.09388894 -244.40606598 272.09388894 -237.00878906 253.72607422 C-235.15163873 248.96646322 -233.91298403 244.13008068 -232.63378906 239.18310547 C-231.62497084 236.1725377 -230.92890163 234.41458004 -228.64160156 232.22216797 C-225.61035156 231.20263672 -225.61035156 231.20263672 -222.14160156 230.40966797 C-217.67407548 229.32029139 -217.67407548 229.32029139 -214.22753906 226.55419922 C-213.37850745 224.47935364 -213.37850745 224.47935364 -212.64160156 221.22216797 C-212.14660156 220.69236328 -211.65160156 220.16255859 -211.14160156 219.61669922 C-208.76183483 215.81774868 -209.01098688 211.81128075 -208.76660156 207.40966797 C-204.93224976 156.88718054 -181.02160667 108.4048165 -143.64160156 74.22216797 C-141.73509518 72.68861701 -139.81831318 71.16775533 -137.89160156 69.65966797 C-132.91492357 65.67413762 -129.92013615 61.61588616 -126.64160156 56.22216797 C-105.56258836 25.3875784 -70.90959466 11.46839265 -35.30541992 4.48779297 C-23.56596378 2.31728335 -11.88177055 0.99929863 0 0 Z M88.35839844 163.22216797 C87.90997388 170.06064252 90.2023867 174.19376218 93.98339844 179.65966797 C94.39686523 180.27495361 94.81033203 180.89023926 95.23632812 181.52416992 C98.47139993 185.94260987 100.98808541 186.82576355 106.35839844 188.22216797 C109.6374292 191.43573714 111.91552776 195.34726964 114.35839844 199.22216797 C115.03128906 200.26888672 115.70417969 201.31560547 116.39746094 202.39404297 C127.96634158 221.42239492 135.35839844 244.91038167 135.35839844 267.22216797 C133.37839844 268.21216797 133.37839844 268.21216797 131.35839844 269.22216797 C133.28957952 278.21597998 133.28957952 278.21597998 138.87011719 285.17138672 C142.87179347 286.60857086 146.1192415 287.21611717 150.13378906 285.43408203 C153.97540599 283.20111618 157.37495336 280.45837121 160.75146484 277.58349609 C163.01281776 275.6677708 165.37402737 273.88984551 167.73339844 272.09716797 C168.94409324 271.1418197 170.15349771 270.18481352 171.35839844 269.22216797 C168.85245086 266.64939512 166.28625091 264.33719866 163.48339844 262.09716797 C155.33551792 254.93552997 151.58154808 245.90353417 150.35839844 235.22216797 C150.37732825 229.25296596 150.79706272 223.43847622 152.26464844 217.64404297 C152.74469707 214.05007831 152.74469707 214.05007831 149.99902344 211.44873047 C148.88742907 210.55780792 147.75561332 209.69172883 146.60839844 208.84716797 C146.01075684 208.37512939 145.41311523 207.90309082 144.79736328 207.41674805 C142.99875936 205.99884783 141.17990375 204.61044214 139.35839844 203.22216797 C130.25392212 195.99214265 121.75193506 188.25512307 113.35839844 180.22216797 C112.77783691 179.67028809 112.19727539 179.1184082 111.59912109 178.54980469 C101.497902 168.90972186 101.497902 168.90972186 98.48339844 163.47216797 C96.69361489 159.90375219 96.69361489 159.90375219 93.17089844 159.53466797 C90.04233167 159.96335244 90.04233167 159.96335244 88.35839844 163.22216797 Z M269.80761719 780.93701172 C268.9566597 781.1122084 268.10570221 781.28740509 267.22895813 781.46791077 C264.50088734 782.02998533 261.77338633 782.59477236 259.04589844 783.15966797 C257.21846226 783.5368042 255.39098874 783.91375954 253.56347656 784.29052734 C250.98209846 784.82275032 248.40077883 785.35524058 245.81974792 785.8891449 C245.04577164 786.04923538 244.27179535 786.20932587 243.47436523 786.37426758 C242.79866989 786.51416611 242.12297455 786.65406464 241.42680359 786.79820251 C239.07228521 787.28081321 236.71519505 787.75080865 234.35839844 788.22216797 C234.35839844 792.18216797 234.35839844 796.14216797 234.35839844 800.22216797 C237.33907494 799.62481978 240.31776942 799.0194859 243.29589844 798.40966797 C244.12669922 798.24402344 244.9575 798.07837891 245.81347656 797.90771484 C254.79160139 796.05619494 262.2975387 793.85399581 269.67089844 788.28466797 C270.26451172 787.85476563 270.858125 787.42486328 271.46972656 786.98193359 C274.69330961 784.6136602 277.61931033 782.13709877 280.35839844 779.22216797 C276.78568106 779.22216797 273.29601301 780.21217314 269.80761719 780.93701172 Z M-258.64160156 782.22216797 C-251.18719832 792.01938365 -240.91186893 799.38841899 -229.64160156 804.22216797 C-224.2025923 799.28776265 -224.2025923 799.28776265 -222.45410156 792.47216797 C-222.51597656 791.39966797 -222.57785156 790.32716797 -222.64160156 789.22216797 C-230.48565791 787.33272374 -238.35834354 785.63117076 -246.26660156 784.03466797 C-247.14348633 783.85581055 -248.02037109 783.67695312 -248.92382812 783.49267578 C-249.75108398 783.32735352 -250.57833984 783.16203125 -251.43066406 782.99169922 C-252.17010254 782.84321533 -252.90954102 782.69473145 -253.67138672 782.54174805 C-255.80249 782.14211145 -255.80249 782.14211145 -258.64160156 782.22216797 Z " fill="#F26000" transform="translate(592.6416015625,15.77783203125)"/>
<path d="M0 0 C22.37432413 -1.72570045 47.18330153 5.78999041 65.27246094 19.41748047 C69.05648872 21.63041824 72.22330703 21.76639876 76.48339844 21.78466797 C94.19097667 22.40425265 108.89080992 28.39515348 121.35839844 41.22216797 C121.98101563 41.82416016 122.60363281 42.42615234 123.24511719 43.04638672 C129.89643039 49.93684826 134.27546815 59.1095209 137.86230469 67.91357422 C139.29976191 71.09249397 140.71126113 73.0494299 143.04589844 75.59716797 C151.12058599 85.47279132 155.13621453 97.13972747 158.73339844 109.22216797 C163.70254252 125.7916706 171.10281316 141.38210889 178.18173218 157.13059998 C181.18755794 163.81879108 184.11438935 170.53647793 186.98339844 177.28466797 C187.34296631 178.12803711 187.70253418 178.97140625 188.07299805 179.84033203 C188.83664268 181.63349295 189.59790429 183.42766863 190.35839844 185.22216797 C190.9369458 185.2012207 191.51549316 185.18027344 192.11157227 185.15869141 C206.3778005 184.71016607 217.92860888 184.63624229 229.35839844 194.24951172 C232.71892569 197.56409426 235.1421249 201.06581303 237.35839844 205.22216797 C237.7721875 205.98658203 238.18597656 206.75099609 238.61230469 207.53857422 C243.79862243 219.08581128 242.96183688 234.70172068 238.67871094 246.39794922 C233.73493932 256.97293999 225.69960406 266.14083848 214.64746094 270.41357422 C213.89207031 270.68041016 213.13667969 270.94724609 212.35839844 271.22216797 C211.62363281 271.51994141 210.88886719 271.81771484 210.13183594 272.12451172 C197.18155596 276.82386081 183.60562846 274.88900983 171.35839844 269.22216797 C167.99588927 267.1940643 165.16689017 264.95970833 162.35839844 262.22216797 C161.79765625 261.67689453 161.23691406 261.13162109 160.65917969 260.56982422 C153.25593634 252.64443777 149.20290722 242.5466229 149.43261719 231.72607422 C150.04124217 222.29737578 150.04124217 222.29737578 151.38964844 217.72607422 C151.71637743 214.31655811 151.71637743 214.31655811 150.00561523 212.50366211 C147.93189038 210.65233903 145.78502835 208.99453279 143.54589844 207.34716797 C141.96644365 206.12101442 140.38831272 204.89315362 138.81152344 203.66357422 C138.04259766 203.07463379 137.27367187 202.48569336 136.48144531 201.87890625 C133.06831756 199.21544202 129.91392928 196.31393266 126.72949219 193.38232422 C124.71128643 191.5436623 122.66304626 189.75593076 120.59667969 187.97216797 C116.26990488 184.19386467 112.17114287 180.21855047 108.10839844 176.15966797 C107.41488281 175.47839844 106.72136719 174.79712891 106.00683594 174.09521484 C102.27126789 170.37038119 98.99972692 166.80364753 96.35839844 162.22216797 C96.35839844 161.56216797 96.35839844 160.90216797 96.35839844 160.22216797 C94.37839844 160.55216797 92.39839844 160.88216797 90.35839844 161.22216797 C88.78615197 168.22581133 90.43579132 171.93193311 93.87402344 177.81591797 C97.1822603 183.41579801 97.1822603 183.41579801 102.81542969 186.18701172 C109.10546419 188.02478365 111.94242528 193.95432285 115.35839844 199.22216797 C116.05320312 200.29080078 116.74800781 201.35943359 117.46386719 202.46044922 C128.08838408 219.94877394 136.81694191 243.52220555 136.35839844 264.22216797 C136.02839844 265.21216797 135.69839844 266.20216797 135.35839844 267.22216797 C134.73964844 267.46966797 134.12089844 267.71716797 133.48339844 267.97216797 C130.97914534 269.153516 130.97914534 269.153516 129.98339844 272.65966797 C128.00551039 276.99580715 126.54058115 277.25910261 122.35839844 279.22216797 C121.71902344 280.25341797 121.07964844 281.28466797 120.42089844 282.34716797 C118.35839844 285.22216797 118.35839844 285.22216797 114.98339844 286.15966797 C111.35839844 286.22216797 111.35839844 286.22216797 108.74902344 285.76123047 C104.33355159 285.05923149 99.94566983 284.86463676 95.48339844 284.65966797 C94.60425781 284.61648438 93.72511719 284.57330078 92.81933594 284.52880859 C90.66584047 284.42347458 88.5121378 284.32239148 86.35839844 284.22216797 C86.35839844 284.88216797 86.35839844 285.54216797 86.35839844 286.22216797 C85.69839844 286.22216797 85.03839844 286.22216797 84.35839844 286.22216797 C84.35839844 285.56216797 84.35839844 284.90216797 84.35839844 284.22216797 C83.36839844 284.22216797 82.37839844 284.22216797 81.35839844 284.22216797 C81.35839844 283.56216797 81.35839844 282.90216797 81.35839844 282.22216797 C80.36839844 282.22216797 79.37839844 282.22216797 78.35839844 282.22216797 C78.35839844 282.88216797 78.35839844 283.54216797 78.35839844 284.22216797 C74.72839844 284.55216797 71.09839844 284.88216797 67.35839844 285.22216797 C67.02839844 286.21216797 66.69839844 287.20216797 66.35839844 288.22216797 C63.34214115 287.56705326 60.76520237 286.54962528 57.98339844 285.22216797 C54.44188286 283.60653442 51.26316143 282.62265648 47.35839844 282.22216797 C46.69839844 283.54216797 46.03839844 284.86216797 45.35839844 286.22216797 C42.13872379 286.29882689 39.28066549 286.20721932 36.10839844 285.59716797 C35.20089844 285.47341797 34.29339844 285.34966797 33.35839844 285.22216797 C32.69839844 285.88216797 32.03839844 286.54216797 31.35839844 287.22216797 C23.84430975 289.7268642 16.38993922 290.33366458 8.54589844 290.65966797 C-2.35735654 291.0032427 -2.35735654 291.0032427 -12.64160156 294.22216797 C-15.88076064 294.74803418 -19.12818975 295.18328997 -22.37988281 295.62451172 C-25.55504815 296.08005954 -25.55504815 296.08005954 -27.99780273 297.24023438 C-30.89716527 298.31708691 -33.12044986 298.49064278 -36.20410156 298.53076172 C-37.7703125 298.5684668 -37.7703125 298.5684668 -39.36816406 298.60693359 C-41.55039631 298.64208889 -43.73269496 298.67333919 -45.91503906 298.70068359 C-46.95917969 298.72710937 -48.00332031 298.75353516 -49.07910156 298.78076172 C-50.0265625 298.79421631 -50.97402344 298.8076709 -51.95019531 298.8215332 C-55.11041892 299.29195473 -56.98268646 300.49684113 -59.64160156 302.22216797 C-62.47363281 302.84716797 -62.47363281 302.84716797 -65.45410156 303.22216797 C-69.83786825 303.8636948 -73.5300585 304.81669024 -77.59863281 306.51123047 C-80.01661326 307.35266917 -82.36097246 307.71450508 -84.89160156 308.09716797 C-89.11751882 308.78402504 -92.61596323 309.96224936 -96.51660156 311.72216797 C-100.65592815 313.55597975 -104.20998694 314.58453132 -108.70410156 315.09716797 C-117.82903205 316.24599015 -126.12853848 319.90220255 -134.64160156 323.22216797 C-145.48537506 327.42295736 -156.17816905 330.33285927 -167.74707031 331.74169922 C-168.4200415 331.82395752 -169.0930127 331.90621582 -169.78637695 331.9909668 C-171.65557213 332.20920472 -173.52746872 332.4039349 -175.39941406 332.59716797 C-179.77608233 333.44086306 -182.51417755 335.09474395 -185.64160156 338.22216797 C-188.05162873 338.01705927 -190.27411291 337.67971454 -192.64160156 337.22216797 C-194.53707812 336.86609681 -196.43293217 336.512031 -198.32910156 336.15966797 C-199.24046875 335.98306641 -200.15183594 335.80646484 -201.09082031 335.62451172 C-203.86974024 335.11829649 -203.86974024 335.11829649 -207.64160156 335.22216797 C-208.30160156 335.22216797 -208.96160156 335.22216797 -209.64160156 335.22216797 C-209.97160156 336.21216797 -210.30160156 337.20216797 -210.64160156 338.22216797 C-212.66571361 337.21011195 -214.64819506 336.21812679 -216.57910156 335.03466797 C-219.25958982 333.97871805 -220.91328089 334.46430112 -223.64160156 335.22216797 C-224.48038611 333.93403455 -225.31246939 332.64153541 -226.14160156 331.34716797 C-226.60566406 330.62787109 -227.06972656 329.90857422 -227.54785156 329.16748047 C-228.64160156 327.22216797 -228.64160156 327.22216797 -228.64160156 325.22216797 C-229.30160156 325.22216797 -229.96160156 325.22216797 -230.64160156 325.22216797 C-244.44927122 272.20116975 -244.44927122 272.20116975 -237.00878906 253.72607422 C-235.15163873 248.96646322 -233.91298403 244.13008068 -232.63378906 239.18310547 C-231.62497084 236.1725377 -230.92890163 234.41458004 -228.64160156 232.22216797 C-225.61035156 231.20263672 -225.61035156 231.20263672 -222.14160156 230.40966797 C-217.67407548 229.32029139 -217.67407548 229.32029139 -214.22753906 226.55419922 C-213.37850745 224.47935364 -213.37850745 224.47935364 -212.64160156 221.22216797 C-212.14660156 220.69236328 -211.65160156 220.16255859 -211.14160156 219.61669922 C-208.76183483 215.81774868 -209.01098688 211.81128075 -208.76660156 207.40966797 C-204.93224976 156.88718054 -181.02160667 108.4048165 -143.64160156 74.22216797 C-141.73509518 72.68861701 -139.81831318 71.16775533 -137.89160156 69.65966797 C-132.91492357 65.67413762 -129.92013615 61.61588616 -126.64160156 56.22216797 C-105.56258836 25.3875784 -70.90959466 11.46839265 -35.30541992 4.48779297 C-23.56596378 2.31728335 -11.88177055 0.99929863 0 0 Z " fill="#EA3939" transform="translate(592.6416015625,15.77783203125)"/>
<path d="M0 0 C1.75 0.1875 1.75 0.1875 4 1 C5.33333333 2.66666667 6.66666667 4.33333333 8 6 C11.00991004 7.27693153 11.80484947 7.06505018 15 6 C16.67573847 5.87507077 18.35536999 5.79890458 20.03515625 5.75390625 C21.00904297 5.72103516 21.98292969 5.68816406 22.98632812 5.65429688 C25.04089962 5.59298585 27.09559536 5.53570879 29.15039062 5.48242188 C30.12298828 5.44826172 31.09558594 5.41410156 32.09765625 5.37890625 C33.43582397 5.34132202 33.43582397 5.34132202 34.80102539 5.30297852 C37.20539279 5.19725686 37.20539279 5.19725686 39 3 C40.8125 2.953125 40.8125 2.953125 43 3.25 C43.79792969 3.35828125 44.59585937 3.4665625 45.41796875 3.578125 C50.30600812 4.37677591 55.20165946 5.23982088 59.984375 6.5390625 C63.96885941 7.45024304 67.96041661 7.62705951 72 7 C73.70586575 5.37347684 75.3777546 3.70993434 77 2 C83.90711345 1.8645664 91.30681285 5.2045419 97 9 C99.34302055 8.7434649 101.6767522 8.39758674 104 8 C106.53813813 7.81683539 109.08115289 7.69235237 111.625 7.625 C112.89601563 7.57601562 114.16703125 7.52703125 115.4765625 7.4765625 C119.91625556 8.13611779 121.19175827 9.58751578 124 13 C124.50144531 13.57621094 125.00289062 14.15242187 125.51953125 14.74609375 C140.07884926 33.79196897 151.53867915 61.68248389 151 86 C150.67 86.99 150.34 87.98 150 89 C149.38125 89.2475 148.7625 89.495 148.125 89.75 C145.6207469 90.93134803 145.6207469 90.93134803 144.625 94.4375 C142.64711195 98.77363918 141.18218271 99.03693465 137 101 C136.360625 102.03125 135.72125 103.0625 135.0625 104.125 C133 107 133 107 129.625 107.9375 C126 108 126 108 123.390625 107.5390625 C118.97515315 106.83706352 114.58727139 106.64246879 110.125 106.4375 C109.24585938 106.39431641 108.36671875 106.35113281 107.4609375 106.30664062 C105.30744203 106.20130661 103.15373936 106.10022351 101 106 C101 106.66 101 107.32 101 108 C100.34 108 99.68 108 99 108 C99 107.34 99 106.68 99 106 C98.01 106 97.02 106 96 106 C96 105.34 96 104.68 96 104 C95.01 104 94.02 104 93 104 C93 104.66 93 105.32 93 106 C89.37 106.33 85.74 106.66 82 107 C81.67 107.99 81.34 108.98 81 110 C77.98374271 109.3448853 75.40680393 108.32745731 72.625 107 C69.08348442 105.38436645 65.90476299 104.40048851 62 104 C61.34 105.32 60.68 106.64 60 108 C56.78032535 108.07665892 53.92226705 107.98505136 50.75 107.375 C49.8425 107.25125 48.935 107.1275 48 107 C47.34 107.66 46.68 108.32 46 109 C38.48591131 111.50469623 31.03154079 112.11149661 23.1875 112.4375 C12.28424502 112.78107473 12.28424502 112.78107473 2 116 C-1.23915908 116.52586621 -4.48658819 116.961122 -7.73828125 117.40234375 C-10.91344659 117.85789157 -10.91344659 117.85789157 -13.35620117 119.01806641 C-16.25556371 120.09491894 -18.4788483 120.26847481 -21.5625 120.30859375 C-22.60664062 120.33373047 -23.65078125 120.35886719 -24.7265625 120.38476562 C-26.90879475 120.41992092 -29.0910934 120.45117122 -31.2734375 120.47851562 C-32.31757812 120.50494141 -33.36171875 120.53136719 -34.4375 120.55859375 C-35.38496094 120.57204834 -36.33242188 120.58550293 -37.30859375 120.59936523 C-40.46881736 121.06978676 -42.3410849 122.27467316 -45 124 C-47.83203125 124.625 -47.83203125 124.625 -50.8125 125 C-55.19626669 125.64152683 -58.88845694 126.59452227 -62.95703125 128.2890625 C-65.3750117 129.1305012 -67.71937089 129.49233711 -70.25 129.875 C-74.47591726 130.56185707 -77.97436167 131.74008139 -81.875 133.5 C-86.01432659 135.33381178 -89.56838538 136.36236335 -94.0625 136.875 C-103.18743049 138.02382218 -111.48693691 141.68003458 -120 145 C-130.8437735 149.20078939 -141.53656749 152.1106913 -153.10546875 153.51953125 C-153.77843994 153.60178955 -154.45141113 153.68404785 -155.14477539 153.76879883 C-157.01397056 153.98703676 -158.88586716 154.18176693 -160.7578125 154.375 C-165.13448077 155.21869509 -167.87257599 156.87257599 -171 160 C-173.41002717 159.7948913 -175.63251134 159.45754657 -178 159 C-179.89547656 158.64392884 -181.79133061 158.28986303 -183.6875 157.9375 C-185.05455078 157.67259766 -185.05455078 157.67259766 -186.44921875 157.40234375 C-189.22813868 156.89612852 -189.22813868 156.89612852 -193 157 C-193.66 157 -194.32 157 -195 157 C-195.33 157.99 -195.66 158.98 -196 160 C-198.02411204 158.98794398 -200.0065935 157.99595882 -201.9375 156.8125 C-204.61798826 155.75655008 -206.27167933 156.24213315 -209 157 C-209.83878455 155.71186658 -210.67086783 154.41936744 -211.5 153.125 C-211.9640625 152.40570313 -212.428125 151.68640625 -212.90625 150.9453125 C-214 149 -214 149 -214 147 C-214.66 147 -215.32 147 -216 147 C-229.80766966 93.97900178 -229.80766966 93.97900178 -222.3671875 75.50390625 C-220.51003717 70.74429525 -219.27138246 65.90791271 -217.9921875 60.9609375 C-216.98336928 57.95036973 -216.28730006 56.19241207 -214 54 C-210.96875 52.98046875 -210.96875 52.98046875 -207.5 52.1875 C-203.014896 51.10032761 -203.014896 51.10032761 -199.5859375 48.296875 C-198.74570756 46.20682468 -198.74570756 46.20682468 -198 43 C-196.3125 41.0625 -196.3125 41.0625 -195 40 C-194.34 40.66 -193.68 41.32 -193 42 C-185.45446554 43.93702478 -177.58448974 44.33483444 -169.8359375 44.75390625 C-167 45 -167 45 -165 46 C-164.34 44.68 -163.68 43.36 -163 42 C-161.2365625 42.433125 -161.2365625 42.433125 -159.4375 42.875 C-156.80420527 43.20067249 -155.44452785 43.23768632 -153.0859375 41.9765625 C-149.95178638 39.36707104 -147.68114662 36.61907595 -145.5 33.1875 C-143.49281424 30.18336767 -143.13999125 30.04103192 -139.375 28.9375 C-136 29 -136 29 -133 31 C-130.11095637 31.30110818 -130.11095637 31.30110818 -127 30 C-125.24400771 28.12864483 -125.24400771 28.12864483 -123.5625 25.9375 C-120.41269672 22.09004292 -120.41269672 22.09004292 -116.5625 21.25 C-112.86041991 22.02938528 -110.21035565 23.30301885 -106.92578125 25.1015625 C-104.17959671 26.38274393 -101.96987838 26.42426834 -99 26 C-98.34 25.34 -97.68 24.68 -97 24 C-93.42460821 23.16320618 -91.52044638 22.82651787 -88 24 C-87.67 23.01 -87.34 22.02 -87 21 C-86.154375 20.91363281 -85.30875 20.82726562 -84.4375 20.73828125 C-76.7124912 19.78143357 -69.73227718 18.69509651 -64.65234375 12.3046875 C-64.25144531 11.75039062 -63.85054687 11.19609375 -63.4375 10.625 C-62.633125 9.75875 -61.82875 8.8925 -61 8 C-57.59723648 8.05969761 -55.01140114 8.65323389 -51.8125 9.75 C-51.214375 9.8325 -50.61625 9.915 -50 10 C-49.42507813 9.51144531 -48.85015625 9.02289063 -48.2578125 8.51953125 C-45.32311822 6.54445154 -43.5596701 6.75668793 -40.0625 6.9375 C-35.72411962 7.17056178 -35.72411962 7.17056178 -31.609375 6.015625 C-28.13115939 4.6618285 -24.85974078 4.74641082 -21.1875 4.8125 C-20.119552 4.81564209 -20.119552 4.81564209 -19.0300293 4.81884766 C-15.35326856 4.8550636 -11.90555807 5.11095892 -8.3125 5.875 C-5.09306062 6.3585259 -5.09306062 6.3585259 -3.41796875 4.73046875 C-1.80465748 2.9035307 -1.80465748 2.9035307 0 0 Z " fill="#DCE4EB" transform="translate(578,194)"/>
<path d="M0 0 C15.20375609 11.78176265 24.63348007 28.24650391 27.6171875 47.26171875 C29.98855884 70.41888581 26.73556221 92.59600006 11.8125 111.1875 C0.55928008 123.45474633 -17.13439389 129.48954704 -33.375 130.5625 C-51.06537809 130.01456794 -69.31426965 117.35516068 -81.15234375 105.1640625 C-84.34512176 101.42452969 -86.72043629 97.34202611 -89 93 C-89.391875 92.2575 -89.78375 91.515 -90.1875 90.75 C-98.63245374 73.36333054 -95.49116857 54.06892224 -89.50390625 36.5078125 C-85.39430801 24.99863584 -85.39430801 24.99863584 -82 21 C-81.98582031 22.30453125 -81.97164063 23.6090625 -81.95703125 24.953125 C-81.67442139 37.51423124 -80.75747553 49.05678755 -71.58984375 58.59765625 C-66.79314416 62.82865171 -62.74420619 64.67178914 -56.26171875 64.30859375 C-49.18288031 63.34274187 -45.02474279 60.83236744 -40.53515625 55.23828125 C-33.99439259 45.70174798 -31.85793613 34.40636294 -33 23 C-35.16539546 13.07116966 -39.48592578 4.8254192 -48 -1 C-51.11089308 -2.81580025 -53.66970901 -3.34234545 -57.25 -3.625 C-58.14203125 -3.69976563 -59.0340625 -3.77453125 -59.953125 -3.8515625 C-60.96632813 -3.92503906 -60.96632813 -3.92503906 -62 -4 C-44.26093552 -13.83128875 -16.47325372 -10.82606808 0 0 Z " fill="#020000" transform="translate(553,592)"/>
<path d="M0 0 C0.96719971 0.00644531 1.93439941 0.01289062 2.9309082 0.01953125 C15.97654493 0.35148685 25.24011134 5.20026473 35.25 13.5 C36.32894531 14.32177734 36.32894531 14.32177734 37.4296875 15.16015625 C50.39009589 26.22945446 56.01550376 49.69598785 57.57958984 65.91845703 C58.64075097 83.43854282 57.76232184 98.94475068 46.45703125 113.14453125 C34.05864587 126.37679034 12.14487708 135.40653272 -5.84594727 136.03881836 C-20.63876375 136.16487504 -29.57030796 132.36067129 -40.25390625 122.09375 C-54.88833058 106.90075986 -61.2375171 89.50175263 -60.89453125 68.58203125 C-60.4118548 51.74329427 -54.1342152 30.71694419 -42.4609375 18.0078125 C-40.614409 16.38312842 -38.77902043 14.88685705 -36.75 13.5 C-36.09 13.83 -35.43 14.16 -34.75 14.5 C-35.17152344 15.30824219 -35.59304688 16.11648438 -36.02734375 16.94921875 C-36.57519531 18.01785156 -37.12304688 19.08648438 -37.6875 20.1875 C-38.23277344 21.24324219 -38.77804687 22.29898438 -39.33984375 23.38671875 C-43.43694291 32.43211497 -42.88734933 44.17657771 -39.75 53.5 C-36.72598375 61.05307286 -32.55030401 67.40240216 -24.921875 70.80078125 C-20.30587735 72.28686682 -16.14011532 72.48750651 -11.61328125 70.6171875 C-3.076656 65.70659545 1.34739655 58.75856076 4.25 49.5 C6.94401175 38.34679137 5.65324753 27.0572591 -0.140625 17.11328125 C-4.55408438 10.82990881 -9.01704208 7.67223029 -16.625 6.25 C-18.33124156 5.98610131 -20.03904457 5.73137476 -21.75 5.5 C-16.20256793 -0.04743207 -7.39042203 -0.05162261 0 0 Z " fill="#010000" transform="translate(721.75,582.5)"/>
<path d="M0 0 C7.75320693 4.34591035 13.16202042 9.45600363 17.35546875 17.3203125 C17.76925781 18.08472656 18.18304687 18.84914062 18.609375 19.63671875 C23.79569274 31.18395581 22.95890719 46.79986521 18.67578125 58.49609375 C13.73200963 69.07108452 5.69667437 78.23898301 -5.35546875 82.51171875 C-6.11085938 82.77855469 -6.86625 83.04539062 -7.64453125 83.3203125 C-8.74667969 83.76697266 -8.74667969 83.76697266 -9.87109375 84.22265625 C-22.82137373 88.92200534 -36.39730123 86.98715436 -48.64453125 81.3203125 C-52.00704042 79.29220883 -54.83603952 77.05785286 -57.64453125 74.3203125 C-58.20527344 73.77503906 -58.76601563 73.22976563 -59.34375 72.66796875 C-66.80133061 64.68441268 -70.57686353 54.73838611 -70.67578125 43.89453125 C-70.36168138 36.58385689 -69.45820797 30.60231643 -65.64453125 24.3203125 C-65.10957031 23.43730469 -64.57460938 22.55429688 -64.0234375 21.64453125 C-51.10655376 2.2289243 -22.46927603 -9.96312084 0 0 Z " fill="#DBE4EB" transform="translate(812.64453125,203.6796875)"/>
<path d="M0 0 C1.43518264 0.58310311 2.8704057 1.16610674 4.30566406 1.74902344 C5.83801585 2.37534476 7.37023972 3.0019791 8.90234375 3.62890625 C17.90646588 7.31000186 26.88220857 10.97080511 36.1328125 13.9921875 C37.09290977 14.31086037 37.09290977 14.31086037 38.07240295 14.63597107 C41.05182038 15.62266453 44.0342505 16.57333018 47.04321289 17.46655273 C55.30201597 20.1685339 58.56865892 23.76680607 62.83984375 31.19140625 C63.93156246 32.83687664 65.03424332 34.47513324 66.1484375 36.10546875 C67.19261498 37.67497776 68.23559365 39.24528503 69.27734375 40.81640625 C69.81810547 41.62980469 70.35886719 42.44320312 70.91601562 43.28125 C72.22504401 45.25058474 73.53297684 47.22063678 74.83984375 49.19140625 C72.83984375 50.19140625 72.83984375 50.19140625 71.1418457 49.66918945 C70.46081787 49.36327881 69.77979004 49.05736816 69.078125 48.7421875 C68.29937012 48.39414062 67.52061523 48.04609375 66.71826172 47.6875 C65.44813232 47.10162109 65.44813232 47.10162109 64.15234375 46.50390625 C63.27980957 46.106875 62.40727539 45.70984375 61.50830078 45.30078125 C51.44108418 40.651913 41.64360138 35.47859958 31.86083984 30.26367188 C30.52884865 29.55696672 29.18851204 28.8657404 27.83984375 28.19140625 C32.87374018 40.17037334 38.54228675 51.81849153 44.33984375 63.44140625 C44.69811249 64.16293884 45.05638123 64.88447144 45.42550659 65.62786865 C51.33563971 77.51553868 57.67638767 89.05945444 64.59057617 100.39794922 C75.72499222 118.77880281 87.45355225 140.51998342 89.83984375 162.19140625 C81.39611159 158.42448264 76.62651468 149.10023742 71.53198242 141.7590332 C67.46161213 135.94665828 63.08084648 130.52806499 58.4296875 125.17578125 C54.45988354 120.60122586 50.66176617 115.88947334 46.83984375 111.19140625 C45.42359464 109.46189758 44.00691902 107.73273808 42.58984375 106.00390625 C38.25916711 100.71169826 33.94802419 95.40374782 29.63769531 90.0949707 C26.54571496 86.28775554 23.44812538 82.48533824 20.33984375 78.69140625 C18.83969386 76.85819556 17.33970919 75.02484967 15.83984375 73.19140625 C15.35016113 72.59360352 14.86047852 71.99580078 14.35595703 71.37988281 C7.95556699 63.56085965 1.6203982 55.71113698 -4.4921875 47.6640625 C-6.49446621 45.03727637 -8.54353879 42.45207565 -10.609375 39.875 C-28.74251578 17.15171136 -28.74251578 17.15171136 -30.16015625 7.19140625 C-12.95501633 -5.35988434 -12.95501633 -5.35988434 0 0 Z " fill="#A52B00" transform="translate(173.16015625,718.80859375)"/>
<path d="M0 0 C19.01523593 -1.12405336 37.30583695 2.2023995 53.75390625 12.140625 C54.75390625 15.140625 54.75390625 15.140625 53.12548828 18.67895508 C52.30920453 20.15927116 51.47844064 21.63165518 50.63671875 23.09765625 C50.18628204 23.89355667 49.73584534 24.68945709 49.27175903 25.50947571 C43.85544236 34.92389459 37.76297885 43.87251634 31.62890625 52.828125 C30.42655136 54.59534131 29.22473368 56.36292322 28.0234375 58.13085938 C19.87837105 70.10191463 11.65212661 82.01555668 3.33984375 93.87109375 C0.52505849 97.89914851 -2.25001677 101.95433652 -5.02514648 106.00976562 C-7.70154406 109.91394626 -10.40460794 113.79819461 -13.125 117.671875 C-19.97654654 127.43907614 -26.67755895 137.22924834 -32.9296875 147.390625 C-35.46337988 151.5074654 -38.04910314 155.58756253 -40.68359375 159.640625 C-41.30403564 160.62192383 -41.30403564 160.62192383 -41.93701172 161.62304688 C-42.96096142 163.18375466 -44.09528001 164.67096194 -45.24609375 166.140625 C-46.23609375 166.140625 -47.22609375 166.140625 -48.24609375 166.140625 C-45.53942233 148.29351031 -38.93940578 131.6115037 -31.74609375 115.140625 C-31.32005859 114.16367676 -30.89402344 113.18672852 -30.45507812 112.18017578 C-27.9621786 106.60292043 -25.24178744 101.20443465 -22.328125 95.83984375 C-18.28485015 88.37829967 -14.79323655 80.74238196 -11.43359375 72.953125 C-11.13849915 72.27407104 -10.84340454 71.59501709 -10.53936768 70.89538574 C-2.73529031 52.92840541 4.72624346 34.7883146 10.75390625 16.140625 C10.25890625 15.645625 10.25890625 15.645625 9.75390625 15.140625 C8.78195312 15.86765625 7.81 16.5946875 6.80859375 17.34375 C-5.0211488 26.02462064 -18.21874603 35.46484243 -32.24609375 40.140625 C-30.29670575 34.81091527 -27.49299721 29.98075938 -24.76074219 25.02490234 C-22.41544234 20.66947812 -20.6078201 16.45724124 -19.13525391 11.73999023 C-16.63196158 4.00732216 -16.63196158 4.00732216 -12.69140625 1.54296875 C-8.44862415 0.38241131 -4.36784664 0.27346518 0 0 Z " fill="#A52B00" transform="translate(1013.24609375,715.859375)"/>
<path d="M0 0 C19.14176331 -1.21606496 38.39653491 5.76754444 53 18 C61.80843245 25.75937889 69.12758274 34.51667552 76 44 C76.98157297 45.33738482 77.96335373 46.67461717 78.9453125 48.01171875 C109.97512896 90.4697547 109.97512896 90.4697547 122 112 C119.03 112.495 119.03 112.495 116 113 C115.23826608 117.3164922 114.83936396 120.74433453 116 125 C113.1932904 123.69189553 110.88260813 122.23561662 108.48828125 120.27734375 C66.19341463 86.34106545 0.75348061 73.18749973 -52 68 C-46.43832147 62.43832147 -35.52417703 63.69542792 -28.20019531 63.67089844 C-26.71679161 63.67477112 -25.23339151 63.68034551 -23.75 63.6875 C-22.98699585 63.68899048 -22.2239917 63.69048096 -21.43786621 63.6920166 C16.79080173 63.82512063 56.53471032 68.28095136 90 88 C82.26423721 69.88460612 68.0321143 57.57173958 52.97265625 45.4375 C49.46681527 42.56280253 46.04329802 39.60277333 42.625 36.625 C37.40253443 32.07676238 32.15277955 27.56576423 26.85522461 23.10522461 C24.00872519 20.70640072 21.17538748 18.29395933 18.359375 15.859375 C10.90318929 9.3881457 10.90318929 9.3881457 3.125 3.3125 C2.09375 2.549375 1.0625 1.78625 0 1 C0 0.67 0 0.34 0 0 Z " fill="#DF2D2C" transform="translate(567,64)"/>
<path d="M0 0 C11.58274255 9.22869595 11.58274255 9.22869595 16.23413086 14.76245117 C18.29206668 16.85790153 18.29206668 16.85790153 21.04003906 16.88916016 C28.22171307 16.02605921 35.17165666 14.76146305 42.1875 13 C43.25734131 12.73711182 44.32718262 12.47422363 45.42944336 12.20336914 C60.92908315 8.33214985 76.21754527 3.70280821 91.44140625 -1.12890625 C94.41864138 -2.06737432 97.40686251 -2.96137501 100.40234375 -3.83984375 C102.14332025 -4.35125254 103.88420525 -4.8629729 105.625 -5.375 C106.89476685 -5.74842529 106.89476685 -5.74842529 108.19018555 -6.12939453 C114.28885983 -7.95406367 120.14226165 -10.09731087 126.00390625 -12.58984375 C128.4375 -13.375 128.4375 -13.375 131.4375 -12.375 C128.22775154 -9.11503282 125.01089264 -5.86229466 121.7878418 -2.61547852 C120.69709309 -1.51480081 119.6081601 -0.41232017 118.52124023 0.69213867 C112.23498122 7.07711953 105.903192 13.1191626 98.86157227 18.67675781 C96.37736637 20.67332978 94.03862571 22.78697611 91.6875 24.9375 C85.52783537 29.75686724 78.96561913 31.10309916 71.4375 32.625 C69.61656575 33.00832807 67.79564043 33.39169901 65.97485352 33.77572632 C62.5896577 34.48652438 59.20153686 35.18277334 55.8125 35.875 C55.14198608 36.01214417 54.47147217 36.14928833 53.78063965 36.29058838 C51.84194234 36.68407696 49.90145989 37.068738 47.9609375 37.453125 C46.82575684 37.6790332 45.69057617 37.90494141 44.52099609 38.13769531 C41.4375 38.625 41.4375 38.625 36.4375 38.625 C36.4375 42.585 36.4375 46.545 36.4375 50.625 C33.14899455 47.33649455 30.95563768 44.57489853 28.4375 40.75 C23.34703863 33.20416509 17.52060989 26.38300106 11.4375 19.625 C10.82261719 18.93664062 10.20773437 18.24828125 9.57421875 17.5390625 C-7.45767728 -0.46487722 -31.83519987 -12.91331114 -56.64648438 -13.7097168 C-78.40637752 -14.04639931 -98.14228212 -6.29040225 -115.5625 6.625 C-116.57183594 7.35074219 -117.58117187 8.07648437 -118.62109375 8.82421875 C-133.85274341 20.10346972 -148.51405447 33.58507923 -159.13671875 49.390625 C-165.19277797 58.26381215 -165.19277797 58.26381215 -169.62890625 59.43359375 C-172.40128411 59.43713446 -174.86077023 59.2259551 -177.5625 58.625 C-175.99384813 53.524415 -172.85578196 49.96634234 -169.5 45.9375 C-168.91653809 45.22851562 -168.33307617 44.51953125 -167.73193359 43.7890625 C-163.7809487 39.01527277 -159.7308171 34.34631931 -155.53515625 29.78515625 C-153.67776426 27.75122007 -151.90061247 25.66769251 -150.125 23.5625 C-110.26303936 -21.92916806 -50.22385292 -37.97413269 0 0 Z " fill="#A62B00" transform="translate(790.5625,765.375)"/>
<path d="M0 0 C1.99142803 1.54684238 3.97046868 3.10975011 5.9375 4.6875 C7.45923828 5.90179687 7.45923828 5.90179687 9.01171875 7.140625 C21.92792431 17.65716394 33.73907302 29.520422 43.9375 42.6875 C45.45719949 44.5634191 46.97799614 46.43845003 48.5 48.3125 C51.9375 52.56079435 51.9375 52.56079435 51.9375 53.6875 C49.87967222 53.99180543 47.81569055 54.25468492 45.75 54.5 C44.60144531 54.65082031 43.45289063 54.80164063 42.26953125 54.95703125 C38.9375 54.6875 38.9375 54.6875 36.4453125 52.66796875 C35.61773438 51.68441406 34.79015625 50.70085937 33.9375 49.6875 C32.85054143 48.50534574 31.75765902 47.32862166 30.66015625 46.15625 C30.07186035 45.51719727 29.48356445 44.87814453 28.87744141 44.21972656 C9.34268439 23.07443172 -11.77597423 5.75496957 -39.0625 -4.3125 C-39.90941406 -4.6321875 -40.75632812 -4.951875 -41.62890625 -5.28125 C-60.24591605 -11.9420764 -82.44661915 -11.61421327 -101.0625 -5.3125 C-102.23425781 -4.95027344 -103.40601563 -4.58804688 -104.61328125 -4.21484375 C-125.49187734 2.63630847 -142.42459976 15.55927947 -158.0625 30.6875 C-158.88105469 31.47769531 -159.69960938 32.26789062 -160.54296875 33.08203125 C-164.2572751 36.54212186 -164.2572751 36.54212186 -167.0625 40.6875 C-167.7225 40.6875 -168.3825 40.6875 -169.0625 40.6875 C-169.0625 38.7075 -169.0625 36.7275 -169.0625 34.6875 C-168.4025 34.6875 -167.7425 34.6875 -167.0625 34.6875 C-166.84207031 34.1615625 -166.62164062 33.635625 -166.39453125 33.09375 C-151.68329768 6.51861839 -118.9431377 -12.99310702 -91.0703125 -21.515625 C-59.06447554 -29.99509349 -25.86275229 -18.97502191 0 0 Z " fill="#050100" transform="translate(539.0625,770.3125)"/>
<path d="M0 0 C8.67656543 6.25764416 13.72488623 14.52216709 15.8125 25 C16.59678582 37.60329078 14.69140997 49.4857038 6.375 59.375 C1.49047462 64.62482108 -3.2369321 67.00843581 -10.375 67.4375 C-16.17799981 67.35160033 -19.93013714 64.75933173 -24.1875 61 C-26.57551996 58.51645924 -28.42524666 55.956729 -30.1875 53 C-30.80818359 51.99453125 -30.80818359 51.99453125 -31.44140625 50.96875 C-36.25873207 41.434809 -35.70172165 27.42759728 -33.0625 17.25 C-30.0632146 9.26598676 -24.2512799 2.95387161 -16.9375 -1.3125 C-11.03369876 -2.78845031 -5.39842218 -3.11932176 0 0 Z " fill="#FDFCFC" transform="translate(505.1875,590)"/>
<path d="M0 0 C7.87642229 5.69031325 12.0209691 13.98811533 13.9140625 23.3828125 C14.82196293 33.9650618 13.06070061 43.31429614 8.1640625 52.7578125 C3.88693252 57.74779748 -1.38559903 63.62298335 -8.1640625 64.71875 C-15.02472375 64.84214319 -19.86946727 63.29076416 -25 58.65234375 C-33.78943584 49.28317916 -35.43001353 39.18523494 -35.30078125 26.6640625 C-34.6378577 16.53941189 -30.4667784 8.25223392 -23.0234375 1.4453125 C-16.48576081 -4.23793516 -7.40720122 -4.22003894 0 0 Z " fill="#FCFCFC" transform="translate(714.0859375,590.6171875)"/>
<path d="M0 0 C0.33 0 0.66 0 1 0 C1.03867187 1.77503906 1.03867187 1.77503906 1.078125 3.5859375 C1.50315359 17.06276692 3.45106736 26.86720758 13 37 C23.96245336 47.14077038 34.92272818 49.50744839 49.40234375 49.28125 C58.06111598 48.92572661 65.43034993 45.88844689 72.4765625 40.953125 C74 40 74 40 76 40 C75.83906269 48.69061498 71.6993155 54.0854516 65.8515625 60.2734375 C60.99832454 64.85421298 56.27181373 67.78452996 50 70 C48.89785156 70.44666016 48.89785156 70.44666016 47.7734375 70.90234375 C34.82315752 75.60169284 21.24723002 73.66684186 9 68 C5.63749083 65.97189633 2.80849173 63.73754036 0 61 C-0.56074219 60.45472656 -1.12148438 59.90945313 -1.69921875 59.34765625 C-9.15679936 51.36410018 -12.93233228 41.41807361 -13.03125 30.57421875 C-12.4833248 17.82125965 -8.01408994 9.81130004 0 0 Z " fill="#D0DAE2" transform="translate(755,217)"/>
<path d="M0 0 C5.00503463 3.9968904 9.756454 8.25552917 14.4375 12.625 C15.17871094 13.31207031 15.91992188 13.99914062 16.68359375 14.70703125 C36.0842094 33.34683844 36.0842094 33.34683844 36.6328125 41.54296875 C36.60960937 42.62191406 36.58640625 43.70085937 36.5625 44.8125 C36.54445313 45.89917969 36.52640625 46.98585938 36.5078125 48.10546875 C36.48460937 48.93691406 36.46140625 49.76835938 36.4375 50.625 C33.20912068 47.61280679 30.86184057 44.4324264 28.4375 40.75 C23.34703863 33.20416509 17.52060989 26.38300106 11.4375 19.625 C10.82261719 18.93664062 10.20773437 18.24828125 9.57421875 17.5390625 C-7.45767728 -0.46487722 -31.83519987 -12.91331114 -56.64648438 -13.7097168 C-78.40637752 -14.04639931 -98.14228212 -6.29040225 -115.5625 6.625 C-116.57183594 7.35074219 -117.58117187 8.07648437 -118.62109375 8.82421875 C-133.85274341 20.10346972 -148.51405447 33.58507923 -159.13671875 49.390625 C-165.19277797 58.26381215 -165.19277797 58.26381215 -169.62890625 59.43359375 C-172.40128411 59.43713446 -174.86077023 59.2259551 -177.5625 58.625 C-175.99384813 53.524415 -172.85578196 49.96634234 -169.5 45.9375 C-168.91653809 45.22851562 -168.33307617 44.51953125 -167.73193359 43.7890625 C-163.7809487 39.01527277 -159.7308171 34.34631931 -155.53515625 29.78515625 C-153.67776426 27.75122007 -151.90061247 25.66769251 -150.125 23.5625 C-110.26303936 -21.92916806 -50.22385292 -37.97413269 0 0 Z " fill="#070200" transform="translate(790.5625,765.375)"/>
<path d="M0 0 C11.88633648 2.58121275 23.70947144 5.3646274 35.51516724 8.2913208 C51.28283586 12.19530255 67.05284223 15.89234874 83 19 C82.63430908 19.42627686 82.26861816 19.85255371 81.8918457 20.29174805 C78.31739158 24.45994635 74.7452692 28.63004704 71.1875 32.8125 C70.45370117 33.67004883 70.45370117 33.67004883 69.70507812 34.54492188 C67.08133309 37.58580472 67.08133309 37.58580472 65 41 C57.51252658 40.30732625 50.1576414 39.05856417 42.77832031 37.63574219 C41.42048478 37.37751155 40.06104776 37.12757066 38.70019531 36.88574219 C36.70755088 36.53117572 34.72121047 36.15126531 32.734375 35.765625 C31.56100586 35.54680664 30.38763672 35.32798828 29.17871094 35.10253906 C25.38203026 33.78565658 23.62197847 31.99692256 21 29 C20.11828125 28.09701172 20.11828125 28.09701172 19.21875 27.17578125 C14.39178397 21.94291126 10.17986773 16.31435653 6 10.5625 C5.41154297 9.75659424 4.82308594 8.95068848 4.21679688 8.12036133 C3.39791992 6.97990356 3.39791992 6.97990356 2.5625 5.81640625 C2.06878906 5.13006104 1.57507813 4.44371582 1.06640625 3.73657227 C0 2 0 2 0 0 Z " fill="#A52B00" transform="translate(307,764)"/>
<path d="M0 0 C7.4446122 1.63918067 14.44009877 4.23853951 21.5 7.0625 C22.38461914 7.41505859 23.26923828 7.76761719 24.18066406 8.13085938 C30.77953216 10.80696825 34.22855043 12.81306742 37.375 19.375 C37.71023682 20.06198975 38.04547363 20.74897949 38.39086914 21.45678711 C39.60615446 23.96547748 40.80362809 26.48223554 42 29 C42.74080811 30.5476001 42.74080811 30.5476001 43.49658203 32.12646484 C49.45607492 44.61068462 55.24869661 57.14754384 60.375 70 C60.76228271 70.95463135 61.14956543 71.9092627 61.54858398 72.89282227 C61.89091064 73.77381592 62.2332373 74.65480957 62.5859375 75.5625 C62.8854834 76.32691406 63.1850293 77.09132813 63.49365234 77.87890625 C64.06921815 80.28995532 63.79285109 81.67868992 63 84 C62.63874023 83.41734375 62.27748047 82.8346875 61.90527344 82.234375 C54.50449965 70.34077518 46.91452112 58.77937031 38.32128906 47.71386719 C36.36174287 45.17210549 34.46697505 42.5831607 32.5625 40 C24.56783661 29.3549319 16.15381888 19.11148713 7.1015625 9.3515625 C4.45217172 6.38700255 2.20350251 3.30525377 0 0 Z " fill="#DF2D2C" transform="translate(617,18)"/>
<path d="M0 0 C16.83 0.33 33.66 0.66 51 1 C50.01 2.65 49.02 4.3 48 6 C47.44828125 7.09957031 46.8965625 8.19914063 46.328125 9.33203125 C43.6306254 14.12204677 40.8612281 18.00383967 35.5078125 19.86767578 C28.62977076 21.28253906 21.65224024 21.42885766 15 19 C8.38308678 14.33777833 3.5900738 7.18014761 0 0 Z " fill="#A32A00" transform="translate(575,804)"/>
<path d="M0 0 C0.33 0 0.66 0 1 0 C1 4.62 1 9.24 1 14 C0.67 14 0.34 14 0 14 C-0.33 11.69 -0.66 9.38 -1 7 C-1.99 7.495 -1.99 7.495 -3 8 C-1.125 2.25 -1.125 2.25 0 0 Z " fill="#4C3F37" transform="translate(470,613)"/>
<path d="M0 0 C-2 2 -2 2 -5.125 2.125 C-6.548125 2.063125 -6.548125 2.063125 -8 2 C-5.14066998 -0.85933002 -3.8625627 -1.2875209 0 0 Z " fill="#33241B" transform="translate(708,586)"/>
<path d="M0 0 C0.99 0.33 1.98 0.66 3 1 C1.68 1.99 0.36 2.98 -1 4 C-0.67 2.68 -0.34 1.36 0 0 Z " fill="#F2901A" transform="translate(383,350)"/>
</svg>
